<svg id="Layer_1" data-name="Layer 1" xmlns="http://www.w3.org/2000/svg" viewBox="0 0 96.93456 90.82095"><defs><style>.cls-1{fill:#fff;}.cls-2{fill:#bcbcbc;}</style></defs><title>logo</title><path class="cls-1" d="M55.52144,39.283H22.70186A27.15611,27.15611,0,0,1,48.2255,21.2685V3.02866c-1.07008,0-2.10923-.07325-3.161,0A45.55791,45.55791,0,0,0,2.85122,48.40383c0,23.83423,18.83345,43.57015,42.21326,45.37339,1.1624.08965,1.976,0,3.161,0V75.53737a27.15634,27.15634,0,0,1-25.524-18.01451H55.52144Z" transform="translate(-2.85122 -2.99611)"/><path class="cls-1" d="M99.78578,93.77722H81.54594l-.228-45.37339A27.1829,27.1829,0,0,0,63.30432,22.8449V93.77722H45.06448V3.02866h9.63314A44.99007,44.99007,0,0,1,99.55779,48.40383Z" transform="translate(-2.85122 -2.99611)"/><path class="cls-2" d="M99.47412,94.16631" transform="translate(-2.85122 -2.99611)"/></svg>